<?xml version="1.0" encoding="utf-8"?>
<!-- Generator: Adobe Illustrator 21.1.0, SVG Export Plug-In . SVG Version: 6.00 Build 0)  -->
<svg version="1.1" id="Layer_1" xmlns="http://www.w3.org/2000/svg" xmlns:xlink="http://www.w3.org/1999/xlink" x="0px" y="0px"
	 viewBox="0 0 100 100" style="enable-background:new 0 0 100 100;" xml:space="preserve">
<style type="text/css">
	.st0{fill:#E51828;}
</style>
<path id="path1873" sodipodi:nodetypes="cssccsc" class="st0" d="M55.3,60.9c-5.1-5.7-1.6-15.7,2.7-19.5c3.6-3.3,9.6-6,10.2-5
	c0.9,1.5-2.6,2.5-5.3,4.9c-3.3,3.6-4.4,5.2,0.2,7.2c4.9,2.2,5,4.4,5.2,7.2C68.6,62.6,60.3,65.8,55.3,60.9z"/>
<path id="path1875" sodipodi:nodetypes="cssccsc" class="st0" d="M36.1,60.8c-5.1-5.7-1.6-15.7,2.7-19.5c3.6-3.3,9.6-6,10.2-5
	c0.9,1.5-2.6,2.5-5.3,4.9c-3.3,3.6-4.4,5.2,0.2,7.2c4.9,2.2,5,4.4,5.2,7.2C49.4,62.5,41.1,65.7,36.1,60.8z"/>
</svg>
