<?xml version="1.0" encoding="utf-8"?>
<!-- Generator: Adobe Illustrator 21.1.0, SVG Export Plug-In . SVG Version: 6.00 Build 0)  -->
<svg version="1.1" id="Layer_1" xmlns="http://www.w3.org/2000/svg" xmlns:xlink="http://www.w3.org/1999/xlink" x="0px" y="0px"
	 viewBox="0 0 100 100" style="enable-background:new 0 0 100 100;" xml:space="preserve">
<style type="text/css">
	.st0{fill:#E51828;}
</style>
<g id="path1873_1_" sodipodi:nodetypes="cssccsc">
	<path class="st0" d="M64.5,39.6c5.1,5.7,1.6,15.7-2.7,19.5c-3.6,3.3-9.6,6-10.2,5c-0.9-1.5,2.6-2.5,5.3-4.9
		c3.3-3.6,4.4-5.2-0.2-7.2c-4.9-2.2-5-4.4-5.2-7.2C51.2,37.9,59.5,34.6,64.5,39.6z"/>
</g>
<g id="path1875_1_" sodipodi:nodetypes="cssccsc">
	<path class="st0" d="M45.3,39.5c5.1,5.7,1.6,15.7-2.7,19.5c-3.6,3.3-9.6,6-10.2,5c-0.9-1.5,2.6-2.5,5.3-4.9
		c3.3-3.6,4.4-5.2-0.2-7.2c-4.9-2.2-5-4.4-5.2-7.2C32.1,37.8,40.3,34.5,45.3,39.5z"/>
</g>
</svg>
